<?xml version="1.0" encoding="UTF-8"?>
<svg id="Layer_1" data-name="Layer 1" xmlns="http://www.w3.org/2000/svg" version="1.1" viewBox="0 0 96 96">
  <defs>
    <style>
      .cls-1 {
        fill: #000;
        stroke-width: 0px;
      }
    </style>
  </defs>
  <path class="cls-1" d="M73,12H23c-6,0-11,5-11,11v50c0,6,5,11,11,11h50c6,0,11-5,11-11V23c0-6-5-11-11-11ZM78,73c0,2.8-2.2,5-5,5H23c-2.8,0-5-2.2-5-5V23c0-2.8,2.2-5,5-5h50c2.8,0,5,2.2,5,5v50Z"/>
  <path class="cls-1" d="M65.7,71.6H30.3c-1.1,0-2,.9-2,2s.9,2,2,2h35.3c1.1,0,2-.9,2-2,0-1.1-.9-2-2-2Z"/>
  <path class="cls-1" d="M65.7,62.8H30.3c-1.1,0-2,.9-2,2s.9,2,2,2h35.3c1.1,0,2-.9,2-2,0-1.1-.9-2-2-2Z"/>
  <path class="cls-1" d="M48,20.4c-4.7,0-8.6,3.9-8.6,8.6s3.9,8.6,8.6,8.6,8.6-3.9,8.6-8.6-3.9-8.6-8.6-8.6Z"/>
  <path class="cls-1" d="M59.4,42c-7.3-2.8-15.5-2.8-22.9,0-2.4.9-4,3.3-4,5.9v8.1c0,1.1.9,2,2,2h26.9c1.1,0,2-.9,2-2v-8.1c0-2.6-1.6-5-4-5.9Z"/>
</svg>