<svg xmlns="http://www.w3.org/2000/svg" width="256" height="256" viewBox="0 0 100 100"><rect width="100" height="100" rx="20" fill="#3dcb97"></rect><path fill="#000000" d="M62.33 56.30L36.59 56.30L36.59 81.50L29.03 81.50L29.03 18.50L62.33 18.50Q64.49 18.50 66.65 20.30L66.65 20.30L68.81 22.10Q70.97 23.90 70.97 26.60L70.97 26.60L70.97 48.20Q70.97 50.90 68.81 52.70L68.81 52.70L66.65 54.50Q64.49 56.30 62.33 56.30L62.33 56.30ZM59 24.80L36.59 24.80L36.59 50L59 50Q60.62 50 61.07 49.87Q61.52 49.73 62.33 49.10Q63.14 48.47 63.27 48.06Q63.41 47.66 63.41 46.31L63.41 46.31L63.41 28.49Q63.41 27.14 63.27 26.73Q63.14 26.33 62.33 25.70Q61.52 25.07 61.07 24.94Q60.62 24.80 59 24.80L59 24.80Z"></path></svg>